<svg version="1.1" id="Layer_1" xmlns="http://www.w3.org/2000/svg" xmlns:xlink="http://www.w3.org/1999/xlink" x="0px" y="0px"
	 width="100%" viewBox="0 0 1024 1024" enable-background="new 0 0 1024 1024" xml:space="preserve">
<path fill="#000000" opacity="1.000000" stroke="none" 
	d="
M681.387329,187.591736 
	C690.543152,190.671219 699.671143,191.128418 708.785645,192.155777 
	C720.931030,193.524780 733.339844,195.036346 742.854370,204.266830 
	C746.641174,207.940536 748.818542,212.669815 751.508118,217.054016 
	C756.107666,224.551880 761.802734,230.601669 770.829895,232.463806 
	C774.983154,233.320541 777.952698,236.089096 780.865723,238.752853 
	C783.680542,241.326981 786.741943,242.225983 790.418823,242.127609 
	C796.414062,241.967194 802.418579,241.875305 808.413025,242.015610 
	C820.674683,242.302628 829.758789,247.841736 835.080200,258.998596 
	C838.317322,265.785675 840.570374,272.930878 841.977295,280.340698 
	C843.063904,286.063171 844.307068,291.755798 845.465881,297.464691 
	C846.990662,304.977142 849.812378,311.633453 855.987854,316.763092 
	C859.569397,319.738098 861.687195,324.036011 863.376831,328.485504 
	C866.290894,336.159119 867.355591,344.298706 869.521362,352.161102 
	C871.046631,357.698120 868.785767,363.456177 867.091125,368.783173 
	C862.848389,382.119751 860.693176,396.045227 861.318176,409.637360 
	C862.359009,432.274353 855.360352,452.617493 847.933105,473.159485 
	C843.282349,486.022308 838.834290,499.328949 839.441589,512.907776 
	C840.608643,539.003601 838.161072,565.236511 842.361023,591.216003 
	C843.645386,599.160278 842.226257,607.164978 842.229858,615.124756 
	C842.237915,633.092773 841.343445,651.057739 842.761841,669.053101 
	C843.682129,680.730103 841.631165,692.125732 835.759766,702.788757 
	C829.324768,714.475098 826.354248,727.316711 826.071838,740.685303 
	C825.821716,752.526611 824.742920,764.146423 821.854797,775.769165 
	C818.449646,789.472656 811.568054,801.349670 805.025269,813.502930 
	C804.315430,814.821228 803.250671,815.981995 802.720459,817.358398 
	C797.537170,830.812988 786.325684,833.832458 773.665527,833.925049 
	C763.074707,834.002502 752.740723,835.220581 742.766968,838.895691 
	C741.373230,839.409302 739.665955,839.680786 738.702820,840.655945 
	C731.995667,847.447021 723.334656,849.651184 714.433411,851.369507 
	C705.469849,853.099792 696.586060,855.099609 687.489441,856.309692 
	C677.734375,857.607361 668.105530,856.684814 658.625549,855.708496 
	C645.289917,854.335205 634.256470,846.645142 635.827148,829.811340 
	C636.229187,825.501770 636.250671,821.171143 634.506104,817.010864 
	C631.842529,810.658630 627.149475,807.213867 620.280701,807.079468 
	C613.134949,806.939514 606.044067,807.165466 598.966553,805.319275 
	C593.409058,803.869568 588.474243,806.432861 584.389893,810.197205 
	C580.358154,813.913208 576.847412,817.985901 573.872803,822.755249 
	C568.800537,830.887756 560.935669,836.199402 552.120056,839.633789 
	C540.572876,844.132324 528.518982,846.711548 516.062012,846.968323 
	C510.565277,847.081665 505.061493,847.156616 499.567047,847.013855 
	C485.699768,846.653687 471.940826,847.152466 458.430908,850.794006 
	C455.569489,851.565308 452.504700,851.922791 449.538788,851.896118 
	C442.948608,851.836853 436.490265,852.493103 430.540283,855.381592 
	C422.537903,859.266541 413.924683,858.543823 405.551178,858.786377 
	C391.751465,859.186157 377.872009,860.075745 364.135437,857.986328 
	C354.800171,856.566406 345.371521,855.570190 336.138092,853.827271 
	C327.909393,852.273987 320.096405,848.889832 315.654388,840.390320 
	C313.066864,835.439270 309.292175,831.029663 304.564575,827.692505 
	C303.135773,826.683960 302.321503,825.367249 302.244812,823.509644 
	C301.969513,816.841858 297.989624,812.540894 291.351593,812.196167 
	C285.794708,811.907532 280.447418,813.332947 275.304108,815.396484 
	C273.541473,816.103638 271.942261,817.365601 271.645111,819.252441 
	C269.840240,830.713135 260.357330,834.685425 251.830627,839.306458 
	C247.334625,841.743103 242.177536,842.721008 236.909012,843.032532 
	C226.525436,843.646545 218.866501,839.597900 212.369522,831.472412 
	C205.064529,822.336365 201.164902,811.548157 196.006287,801.379211 
	C192.776184,795.011963 192.710220,787.838257 193.029694,780.805725 
	C193.477219,770.954956 191.364929,761.612671 187.798615,752.524353 
	C185.991898,747.920227 185.372162,743.104431 186.078476,738.275818 
	C187.292343,729.977539 186.824341,721.647583 187.038422,713.330444 
	C187.137451,709.483643 186.805054,705.712891 185.637833,701.981628 
	C185.058365,700.129395 184.871811,697.997986 185.113724,696.068848 
	C187.893616,673.900696 184.931473,651.944336 182.616776,629.990417 
	C181.452393,618.946838 182.317001,608.031738 183.558792,597.132080 
	C184.399292,589.754761 182.765167,582.917236 180.514328,576.105042 
	C179.721375,573.705078 178.397003,571.660950 175.621201,570.860168 
	C172.888641,570.071838 172.068954,567.480957 171.217987,565.149292 
	C166.709595,552.796204 163.847061,539.890320 158.554367,527.788513 
	C157.075943,524.408142 157.261063,520.721313 157.550537,516.977112 
	C158.256638,507.844208 158.389603,498.668579 157.183975,489.548157 
	C156.492599,484.317902 157.150131,479.792236 161.414185,475.946930 
	C165.238892,472.497864 166.802216,468.086090 164.669800,462.822784 
	C164.010620,461.195801 163.610764,459.045471 164.100876,457.443298 
	C166.255356,450.400269 163.888733,442.402405 168.857635,435.940918 
	C170.609268,433.663147 169.566376,431.017242 168.171509,428.898865 
	C164.818939,423.807312 163.643265,418.308929 163.979645,412.267944 
	C164.299576,406.522949 162.144119,401.089539 160.849655,395.626434 
	C157.740448,382.504333 159.093033,369.474304 160.407547,356.380859 
	C160.557236,354.889984 161.051422,353.325043 160.770615,351.917175 
	C158.906601,342.571686 161.731461,333.823273 163.916046,324.974792 
	C164.353775,323.201813 164.745560,321.370056 164.793793,319.555664 
	C165.340042,299.014252 177.552048,285.012115 191.416824,271.942047 
	C192.368942,271.044495 193.531067,270.173218 194.752716,269.787659 
	C212.164932,264.291992 222.456955,248.907593 236.972504,239.380707 
	C241.169266,236.626297 243.656494,232.095200 245.789474,227.463837 
	C248.087112,222.475006 251.847260,218.966339 257.023102,216.667236 
	C261.733215,214.575012 266.069946,211.600021 268.192627,206.520203 
	C269.579254,203.201859 272.465332,201.276550 275.160461,199.553696 
	C281.641571,195.410645 284.993286,187.991104 291.971680,184.369080 
	C296.967255,181.776215 302.045166,180.123505 307.653564,180.089035 
	C309.721588,180.076340 311.778778,180.479385 313.201508,181.975525 
	C320.726624,189.888870 330.218475,188.693573 339.416870,187.225922 
	C347.118134,185.997147 354.815186,184.100586 362.171631,181.522537 
	C370.388824,178.642838 378.459747,178.456818 386.739258,180.271286 
	C392.135284,181.453812 396.695404,180.606354 401.092163,176.838623 
	C407.534821,171.317719 415.510315,168.514130 423.613922,166.476028 
	C430.178406,164.825012 436.246063,162.440277 441.608734,158.258118 
	C451.580444,150.481522 463.242035,148.887772 475.223541,150.361374 
	C483.358215,151.361862 491.422882,152.028244 499.602264,151.924789 
	C506.582550,151.836517 513.551880,151.798370 520.384949,153.944473 
	C526.141907,155.752625 531.973328,154.117065 537.683289,153.155838 
	C553.537659,150.486954 569.201294,152.511429 584.940857,154.370331 
	C592.400208,155.251312 599.482178,157.621490 606.892151,158.734650 
	C615.709961,160.059296 623.420471,164.720810 630.131226,170.647629 
	C633.367249,173.505676 637.046448,175.137436 641.115051,176.264954 
	C654.422974,179.952911 667.707031,183.726944 681.387329,187.591736 
M441.281403,403.235107 
	C464.507446,432.398895 484.346191,463.740662 501.322571,496.903839 
	C519.264893,531.954041 533.606018,568.529602 547.069519,605.472046 
	C547.719360,607.255127 547.797607,609.486450 550.223694,610.267517 
	C552.908508,608.650818 553.484314,605.727844 554.498535,603.187256 
	C565.500854,575.628357 577.477539,548.535034 592.016663,522.616943 
	C614.526123,482.490417 640.483521,444.881989 672.654297,411.804565 
	C687.531982,396.507599 703.031311,381.870361 719.624268,368.416443 
	C721.849609,366.612030 724.524109,365.142181 724.360352,361.344604 
	C723.959167,352.043060 723.859924,342.727448 724.453064,333.416260 
	C724.596680,331.162231 724.627136,328.784393 722.537292,326.165405 
	C647.862061,378.317047 593.915405,447.834381 552.295410,527.868835 
	C551.286560,527.058228 550.913696,526.908325 550.800232,526.646118 
	C542.926392,508.454987 534.658630,490.450867 525.289062,472.971985 
	C524.181641,470.906128 524.759155,469.266907 525.897827,467.416962 
	C552.293640,424.532227 582.360107,384.558472 619.201355,349.991669 
	C622.313660,347.071472 622.344910,345.352142 619.162170,342.585266 
	C589.473938,316.775513 554.822937,302.313568 515.834412,299.590363 
	C477.418518,296.907104 441.951630,307.245026 409.727692,328.373077 
	C402.235260,333.285583 394.970001,338.545197 388.214691,345.547119 
	C407.151031,363.683563 424.826996,382.431335 441.281403,403.235107 
M356.027527,381.472504 
	C335.423340,361.174591 313.378021,342.669403 289.031769,326.372498 
	C288.516327,327.818207 288.211884,328.275024 288.211029,328.732391 
	C288.189270,340.393066 288.228119,352.053925 288.179657,363.714417 
	C288.169800,366.089417 289.695435,367.234497 291.301514,368.473541 
	C309.933380,382.846222 327.389557,398.514648 343.596130,415.591187 
	C346.068024,418.195770 346.797607,420.633118 345.980499,424.099121 
	C341.914948,441.344757 340.229614,458.836060 340.266510,476.573608 
	C340.391693,536.724304 340.275391,596.875549 340.292725,657.026550 
	C340.294067,661.706970 339.972870,666.342285 339.255920,670.955994 
	C336.713623,687.316711 325.190308,697.228943 308.637299,697.293213 
	C305.138428,697.306824 301.637451,697.324341 298.140930,697.221558 
	C295.481598,697.143494 294.122223,698.068237 294.174774,700.962952 
	C294.224579,703.706970 295.409363,704.928467 298.096283,704.916626 
	C300.761780,704.904907 303.427521,704.984253 306.093292,705.000793 
	C318.920654,705.080566 331.753784,704.936279 344.574158,705.275879 
	C366.396088,705.853821 388.215668,705.551941 410.036621,705.533752 
	C410.533997,705.533325 411.034821,705.469055 411.528107,705.395020 
	C414.246826,704.987244 415.761688,703.548828 415.451477,700.654785 
	C415.163147,697.964905 413.587677,697.122375 410.966980,697.219604 
	C406.308533,697.392334 401.630524,697.486328 396.977295,697.264771 
	C384.337646,696.662842 374.566284,688.906860 370.756104,676.881165 
	C368.303833,669.141357 367.976776,661.155640 367.938751,653.174683 
	C367.814148,627.015564 367.859100,600.855713 367.854584,574.696106 
	C367.848297,538.206909 367.750244,501.717133 367.963470,465.229156 
	C367.998566,459.229065 368.060303,453.053497 369.796814,446.978302 
	C372.794922,448.686371 372.758972,448.713745 374.528900,451.038361 
	C410.213379,497.906189 437.168549,549.593201 459.052795,604.082214 
	C459.837646,606.036499 460.071655,608.875122 462.600433,609.009705 
	C465.233978,609.149841 465.731567,606.303894 466.425903,604.362793 
	C473.045624,585.856323 480.402405,567.638550 487.939423,549.495178 
	C489.198456,546.464294 489.060120,543.855591 487.996399,540.877014 
	C484.512329,531.120972 479.734528,521.961304 475.312469,512.636169 
	C474.532227,510.990814 473.889343,508.899475 471.780457,508.804565 
	C469.179565,508.687531 468.967987,511.296570 468.169312,512.979614 
	C465.771606,518.032349 463.539520,523.163635 460.746338,529.366821 
	C432.932922,474.366394 399.736389,424.598022 356.027527,381.472504 
M627.090881,693.799866 
	C622.582886,696.192444 617.759460,697.309937 612.674133,697.284790 
	C608.842712,697.265808 605.011841,697.135437 601.180481,697.119812 
	C598.768982,697.109985 597.399536,698.326843 597.500549,700.809204 
	C597.591187,703.038940 598.448975,704.695984 601.053345,704.710693 
	C602.386230,704.718201 603.719055,704.784119 605.051880,704.782898 
	C626.384277,704.763184 647.716675,704.729431 669.049072,704.714844 
	C683.548401,704.704895 698.047913,704.749207 712.547058,704.698364 
	C715.437622,704.688232 719.041931,705.376831 718.979614,700.656128 
	C718.918091,695.989624 715.369873,697.322571 712.752869,697.260437 
	C709.088562,697.173401 705.416565,697.337280 701.755493,697.195984 
	C688.345764,696.678528 678.767273,689.367371 674.656311,676.639282 
	C673.314880,672.486023 672.637085,668.257751 672.639160,663.870056 
	C672.654419,631.218079 672.634033,598.565979 672.562866,565.914062 
	C672.533142,552.264648 672.058472,538.610046 672.306885,524.967346 
	C672.716187,502.487518 671.939941,480.025177 671.805054,457.554596 
	C671.795471,455.964325 672.238037,453.896515 670.288513,453.159485 
	C668.332458,452.419891 667.322632,454.301086 666.262390,455.469208 
	C658.742554,463.754456 652.126465,472.730011 646.005554,482.088684 
	C644.449097,484.468475 644.198608,486.997833 644.202332,489.708862 
	C644.225830,507.041382 644.206421,524.373962 644.179016,541.706543 
	C644.116028,581.536987 644.163025,621.368286 643.900574,661.197510 
	C643.813599,674.400085 640.439331,686.349426 627.090881,693.799866 
z"/>
<path fill="#000000" opacity="1.000000" stroke="none" 
	d="
M435.469391,347.519379 
	C432.846405,345.443298 430.469543,343.616455 428.092651,341.789642 
	C428.393890,341.055328 428.695129,340.321014 428.996399,339.586700 
	C447.390594,329.002747 467.454315,323.154510 488.512787,320.820251 
	C521.720215,317.139313 552.895020,324.199341 583.675598,339.976288 
	C553.983765,370.120544 528.494690,402.394348 505.873260,438.768372 
	C485.270081,405.383209 462.297302,375.152863 435.469391,347.519379 
z"/>
</svg>